{
  "accessors": [
    {
      "bufferView": 2,
      "componentType": 5126,
      "count": 5052,
      "max": [
        3200.00048828125,
        1600.00048828125,
        2428.0322265625
      ],
      "min": [
        -3271.380126953125,
        -1704.021484375,
        -80.669921875
      ],
      "type": "VEC3"
    },
    {
      "bufferView": 2,
      "byteOffset": 60624,
      "componentType": 5126,
      "count": 5052,
      "max": [
        1.0,
        1.0,
        1.0
      ],
      "min": [
        -1.0,
        -1.0,
        -1.0
      ],
      "type": "VEC3"
    },
    {
      "bufferView": 1,
      "componentType": 5126,
      "count": 5052,
      "max": [
        1.0,
        1.0
      ],
      "min": [
        0.0,
        -0.0006990637630224228
      ],
      "type": "VEC2"
    },
    {
      "bufferView": 1,
      "byteOffset": 40416,
      "componentType": 5126,
      "count": 5052,
      "max": [
        0.9989525079727173,
        0.9990000128746033
      ],
      "min": [
        0.0009999871253967285,
        0.0009999275207519531
      ],
      "type": "VEC2"
    },
    {
      "bufferView": 1,
      "byteOffset": 80832,
      "componentType": 5126,
      "count": 5052,
      "max": [
        1.0,
        1.0
      ],
      "min": [
        0.0,
        -0.0006990637630224228
      ],
      "type": "VEC2"
    },
    {
      "bufferView": 1,
      "byteOffset": 121248,
      "componentType": 5126,
      "count": 5052,
      "max": [
        1.0,
        1.0
      ],
      "min": [
        0.0,
        -0.0006990637630224228
      ],
      "type": "VEC2"
    },
    {
      "bufferView": 0,
      "componentType": 5125,
      "count": 8115,
      "type": "SCALAR"
    }
  ],
  "asset": {
    "extras": {
      "author": "aitortilla01 (https://sketchfab.com/aitortilla01)",
      "license": "CC-BY-4.0 (http://creativecommons.org/licenses/by/4.0/)",
      "source": "https://sketchfab.com/3d-models/low-rise-wall-to-wall-office-building-dcf171dca9174000a0fa8d44660253d0",
      "title": "Low rise wall to wall office building"
    },
    "generator": "Sketchfab-12.65.0",
    "version": "2.0"
  },
  "bufferViews": [
    {
      "buffer": 0,
      "byteLength": 32460,
      "name": "floatBufferViews",
      "target": 34963
    },
    {
      "buffer": 0,
      "byteLength": 161664,
      "byteOffset": 32460,
      "byteStride": 8,
      "name": "floatBufferViews",
      "target": 34962
    },
    {
      "buffer": 0,
      "byteLength": 121248,
      "byteOffset": 194124,
      "byteStride": 12,
      "name": "floatBufferViews",
      "target": 34962
    }
  ],
  "buffers": [
    {
      "byteLength": 315372,
      "uri": "scene.bin"
    }
  ],
  "images": [
    {
      "uri": "textures/AIT01W2W4_baseColor.png"
    }
  ],
  "materials": [
    {
      "doubleSided": true,
      "name": "AIT01W2W4",
      "pbrMetallicRoughness": {
        "baseColorTexture": {
          "index": 0
        },
        "metallicFactor": 0.0,
        "roughnessFactor": 0.6
      }
    }
  ],
  "meshes": [
    {
      "name": "AIT01W2W4_AIT01W2W4_0",
      "primitives": [
        {
          "attributes": {
            "NORMAL": 1,
            "POSITION": 0,
            "TEXCOORD_0": 2,
            "TEXCOORD_1": 3,
            "TEXCOORD_2": 4,
            "TEXCOORD_3": 5
          },
          "indices": 6,
          "material": 0,
          "mode": 4
        }
      ]
    }
  ],
  "nodes": [
    {
      "children": [
        1
      ],
      "matrix": [
        1.0,
        0.0,
        0.0,
        0.0,
        0.0,
        2.220446049250313e-16,
        -1.0,
        0.0,
        0.0,
        1.0,
        2.220446049250313e-16,
        0.0,
        0.0,
        0.0,
        0.0,
        1.0
      ],
      "name": "Sketchfab_model"
    },
    {
      "children": [
        2
      ],
      "matrix": [
        1.0,
        0.0,
        0.0,
        0.0,
        0.0,
        0.0,
        1.0,
        0.0,
        0.0,
        -1.0,
        0.0,
        0.0,
        0.0,
        0.0,
        0.0,
        1.0
      ],
      "name": "AIT01W2W4.FBX"
    },
    {
      "children": [
        3
      ],
      "name": "RootNode"
    },
    {
      "children": [
        4
      ],
      "matrix": [
        1.0,
        0.0,
        0.0,
        0.0,
        0.0,
        2.220446049250313e-16,
        -1.0,
        0.0,
        0.0,
        1.0,
        2.220446049250313e-16,
        0.0,
        0.0,
        0.0,
        0.0,
        1.0
      ],
      "name": "AIT01W2W4"
    },
    {
      "mesh": 0,
      "name": "AIT01W2W4_AIT01W2W4_0"
    }
  ],
  "samplers": [
    {
      "magFilter": 9729,
      "minFilter": 9987,
      "wrapS": 10497,
      "wrapT": 10497
    }
  ],
  "scene": 0,
  "scenes": [
    {
      "name": "Sketchfab_Scene",
      "nodes": [
        0
      ]
    }
  ],
  "textures": [
    {
      "sampler": 0,
      "source": 0
    }
  ]
}
