{
  "accessors": [
    {
      "bufferView": 2,
      "componentType": 5126,
      "count": 148,
      "max": [
        27.075876235961914,
        951.9044799804688,
        27.075876235961914
      ],
      "min": [
        -27.075876235961914,
        -951.9044799804688,
        -27.075876235961914
      ],
      "type": "VEC3"
    },
    {
      "bufferView": 2,
      "byteOffset": 1776,
      "componentType": 5126,
      "count": 148,
      "max": [
        1.0,
        1.0,
        1.0
      ],
      "min": [
        -1.0,
        -1.0,
        -1.0
      ],
      "type": "VEC3"
    },
    {
      "bufferView": 1,
      "componentType": 5126,
      "count": 148,
      "max": [
        1.0,
        1.0
      ],
      "min": [
        0.0,
        0.0
      ],
      "type": "VEC2"
    },
    {
      "bufferView": 0,
      "componentType": 5125,
      "count": 432,
      "type": "SCALAR"
    },
    {
      "bufferView": 2,
      "byteOffset": 3552,
      "componentType": 5126,
      "count": 148,
      "max": [
        27.075876235961914,
        951.9044799804688,
        27.075876235961914
      ],
      "min": [
        -27.075876235961914,
        -951.9044799804688,
        -27.075876235961914
      ],
      "type": "VEC3"
    },
    {
      "bufferView": 2,
      "byteOffset": 5328,
      "componentType": 5126,
      "count": 148,
      "max": [
        1.0,
        1.0,
        1.0
      ],
      "min": [
        -1.0,
        -1.0,
        -1.0
      ],
      "type": "VEC3"
    },
    {
      "bufferView": 1,
      "byteOffset": 1184,
      "componentType": 5126,
      "count": 148,
      "max": [
        1.0,
        1.0
      ],
      "min": [
        0.0,
        0.0
      ],
      "type": "VEC2"
    },
    {
      "bufferView": 0,
      "byteOffset": 1728,
      "componentType": 5125,
      "count": 432,
      "type": "SCALAR"
    },
    {
      "bufferView": 2,
      "byteOffset": 7104,
      "componentType": 5126,
      "count": 148,
      "max": [
        27.075876235961914,
        548.1449584960938,
        27.075876235961914
      ],
      "min": [
        -27.075876235961914,
        -548.1449584960938,
        -27.075876235961914
      ],
      "type": "VEC3"
    },
    {
      "bufferView": 2,
      "byteOffset": 8880,
      "componentType": 5126,
      "count": 148,
      "max": [
        1.0,
        1.0,
        1.0
      ],
      "min": [
        -1.0,
        -1.0,
        -1.0
      ],
      "type": "VEC3"
    },
    {
      "bufferView": 1,
      "byteOffset": 2368,
      "componentType": 5126,
      "count": 148,
      "max": [
        1.0,
        1.0
      ],
      "min": [
        0.0,
        0.0
      ],
      "type": "VEC2"
    },
    {
      "bufferView": 0,
      "byteOffset": 3456,
      "componentType": 5125,
      "count": 432,
      "type": "SCALAR"
    },
    {
      "bufferView": 2,
      "byteOffset": 10656,
      "componentType": 5126,
      "count": 148,
      "max": [
        27.075876235961914,
        548.1449584960938,
        27.075876235961914
      ],
      "min": [
        -27.075876235961914,
        -548.1449584960938,
        -27.075876235961914
      ],
      "type": "VEC3"
    },
    {
      "bufferView": 2,
      "byteOffset": 12432,
      "componentType": 5126,
      "count": 148,
      "max": [
        1.0,
        1.0,
        1.0
      ],
      "min": [
        -1.0,
        -1.0,
        -1.0
      ],
      "type": "VEC3"
    },
    {
      "bufferView": 1,
      "byteOffset": 3552,
      "componentType": 5126,
      "count": 148,
      "max": [
        1.0,
        1.0
      ],
      "min": [
        0.0,
        0.0
      ],
      "type": "VEC2"
    },
    {
      "bufferView": 0,
      "byteOffset": 5184,
      "componentType": 5125,
      "count": 432,
      "type": "SCALAR"
    },
    {
      "bufferView": 2,
      "byteOffset": 14208,
      "componentType": 5126,
      "count": 148,
      "max": [
        27.075876235961914,
        951.9044799804688,
        27.075876235961914
      ],
      "min": [
        -27.075876235961914,
        -951.9044799804688,
        -27.075876235961914
      ],
      "type": "VEC3"
    },
    {
      "bufferView": 2,
      "byteOffset": 15984,
      "componentType": 5126,
      "count": 148,
      "max": [
        1.0,
        1.0,
        1.0
      ],
      "min": [
        -1.0,
        -1.0,
        -1.0
      ],
      "type": "VEC3"
    },
    {
      "bufferView": 1,
      "byteOffset": 4736,
      "componentType": 5126,
      "count": 148,
      "max": [
        1.0,
        1.0
      ],
      "min": [
        0.0,
        0.0
      ],
      "type": "VEC2"
    },
    {
      "bufferView": 0,
      "byteOffset": 6912,
      "componentType": 5125,
      "count": 432,
      "type": "SCALAR"
    },
    {
      "bufferView": 2,
      "byteOffset": 17760,
      "componentType": 5126,
      "count": 148,
      "max": [
        27.075876235961914,
        951.9044799804688,
        27.075876235961914
      ],
      "min": [
        -27.075876235961914,
        -951.9044799804688,
        -27.075876235961914
      ],
      "type": "VEC3"
    },
    {
      "bufferView": 2,
      "byteOffset": 19536,
      "componentType": 5126,
      "count": 148,
      "max": [
        1.0,
        1.0,
        1.0
      ],
      "min": [
        -1.0,
        -1.0,
        -1.0
      ],
      "type": "VEC3"
    },
    {
      "bufferView": 1,
      "byteOffset": 5920,
      "componentType": 5126,
      "count": 148,
      "max": [
        1.0,
        1.0
      ],
      "min": [
        0.0,
        0.0
      ],
      "type": "VEC2"
    },
    {
      "bufferView": 0,
      "byteOffset": 8640,
      "componentType": 5125,
      "count": 432,
      "type": "SCALAR"
    },
    {
      "bufferView": 2,
      "byteOffset": 21312,
      "componentType": 5126,
      "count": 65532,
      "max": [
        13727.1904296875,
        6239.033203125,
        19281.205078125
      ],
      "min": [
        -13677.1943359375,
        -2109.859375,
        -19566.53515625
      ],
      "type": "VEC3"
    },
    {
      "bufferView": 2,
      "byteOffset": 807696,
      "componentType": 5126,
      "count": 65532,
      "max": [
        0.9999998211860657,
        1.0,
        1.0
      ],
      "min": [
        -0.9999997615814209,
        -1.0,
        -1.0
      ],
      "type": "VEC3"
    },
    {
      "bufferView": 1,
      "byteOffset": 7104,
      "componentType": 5126,
      "count": 65532,
      "max": [
        1.0,
        1.0
      ],
      "min": [
        0.0,
        0.0
      ],
      "type": "VEC2"
    },
    {
      "bufferView": 0,
      "byteOffset": 10368,
      "componentType": 5125,
      "count": 296730,
      "type": "SCALAR"
    },
    {
      "bufferView": 2,
      "byteOffset": 1594080,
      "componentType": 5126,
      "count": 1297,
      "max": [
        -3463.626708984375,
        6229.0205078125,
        -9578.9638671875
      ],
      "min": [
        -7115.8662109375,
        3541.535400390625,
        -13160.71875
      ],
      "type": "VEC3"
    },
    {
      "bufferView": 2,
      "byteOffset": 1609644,
      "componentType": 5126,
      "count": 1297,
      "max": [
        0.9992817044258118,
        0.968073844909668,
        0.9998907446861267
      ],
      "min": [
        -0.9899337887763977,
        -0.8000776171684265,
        -0.9998922944068909
      ],
      "type": "VEC3"
    },
    {
      "bufferView": 1,
      "byteOffset": 531360,
      "componentType": 5126,
      "count": 1297,
      "max": [
        1.0,
        1.0
      ],
      "min": [
        0.0,
        0.0
      ],
      "type": "VEC2"
    },
    {
      "bufferView": 0,
      "byteOffset": 1197288,
      "componentType": 5125,
      "count": 5394,
      "type": "SCALAR"
    },
    {
      "bufferView": 2,
      "byteOffset": 1625208,
      "componentType": 5126,
      "count": 48009,
      "max": [
        11464.4423828125,
        6189.00390625,
        16321.921875
      ],
      "min": [
        -11474.4072265625,
        -1185.647705078125,
        -14045.197265625
      ],
      "type": "VEC3"
    },
    {
      "bufferView": 2,
      "byteOffset": 2201316,
      "componentType": 5126,
      "count": 48009,
      "max": [
        1.0,
        1.0,
        1.0
      ],
      "min": [
        -1.0,
        -1.0,
        -1.0
      ],
      "type": "VEC3"
    },
    {
      "bufferView": 1,
      "byteOffset": 541736,
      "componentType": 5126,
      "count": 48009,
      "max": [
        1.0,
        1.0
      ],
      "min": [
        0.0,
        0.0
      ],
      "type": "VEC2"
    },
    {
      "bufferView": 0,
      "byteOffset": 1218864,
      "componentType": 5125,
      "count": 73200,
      "type": "SCALAR"
    },
    {
      "bufferView": 2,
      "byteOffset": 2777424,
      "componentType": 5126,
      "count": 2962,
      "max": [
        11388.869140625,
        3839.017333984375,
        16438.96484375
      ],
      "min": [
        -11532.4384765625,
        -2014.2203369140625,
        -14290.2119140625
      ],
      "type": "VEC3"
    },
    {
      "bufferView": 2,
      "byteOffset": 2812968,
      "componentType": 5126,
      "count": 2962,
      "max": [
        0.9999496936798096,
        1.0,
        1.0
      ],
      "min": [
        -0.9999476075172424,
        -1.0,
        -1.0
      ],
      "type": "VEC3"
    },
    {
      "bufferView": 1,
      "byteOffset": 925808,
      "componentType": 5126,
      "count": 2962,
      "max": [
        1.0,
        1.0
      ],
      "min": [
        0.0,
        0.0
      ],
      "type": "VEC2"
    },
    {
      "bufferView": 0,
      "byteOffset": 1511664,
      "componentType": 5125,
      "count": 7896,
      "type": "SCALAR"
    },
    {
      "bufferView": 2,
      "byteOffset": 2848512,
      "componentType": 5126,
      "count": 249,
      "max": [
        7131.408203125,
        -851.4342041015625,
        11324.0546875
      ],
      "min": [
        -7206.990234375,
        -1185.5013427734375,
        -10074.833984375
      ],
      "type": "VEC3"
    },
    {
      "bufferView": 2,
      "byteOffset": 2851500,
      "componentType": 5126,
      "count": 249,
      "max": [
        0.999360978603363,
        0.0006547929369844496,
        0.9999988079071045
      ],
      "min": [
        -0.9998584985733032,
        -1.0,
        -0.9999978542327881
      ],
      "type": "VEC3"
    },
    {
      "bufferView": 1,
      "byteOffset": 949504,
      "componentType": 5126,
      "count": 249,
      "max": [
        0.6701245903968811,
        1.0
      ],
      "min": [
        0.0,
        0.0
      ],
      "type": "VEC2"
    },
    {
      "bufferView": 0,
      "byteOffset": 1543248,
      "componentType": 5125,
      "count": 984,
      "type": "SCALAR"
    },
    {
      "bufferView": 2,
      "byteOffset": 2854488,
      "componentType": 5126,
      "count": 82,
      "max": [
        5272.36279296875,
        -830.62255859375,
        9177.9443359375
      ],
      "min": [
        -5308.62158203125,
        -875.601806640625,
        -8215.9296875
      ],
      "type": "VEC3"
    },
    {
      "bufferView": 2,
      "byteOffset": 2855472,
      "componentType": 5126,
      "count": 82,
      "max": [
        6.0744376241927966e-05,
        -0.9999808669090271,
        0.004467250779271126
      ],
      "min": [
        -0.0014799287309870124,
        -1.0,
        -0.006188900675624609
      ],
      "type": "VEC3"
    },
    {
      "bufferView": 1,
      "byteOffset": 951496,
      "componentType": 5126,
      "count": 82,
      "max": [
        0.6083992719650269,
        1.0
      ],
      "min": [
        0.0,
        0.0
      ],
      "type": "VEC2"
    },
    {
      "bufferView": 0,
      "byteOffset": 1547184,
      "componentType": 5125,
      "count": 240,
      "type": "SCALAR"
    },
    {
      "bufferView": 2,
      "byteOffset": 2856456,
      "componentType": 5126,
      "count": 664,
      "max": [
        6197.595703125,
        -817.7723388671875,
        10581.9345703125
      ],
      "min": [
        -6181.80810546875,
        -962.2022705078125,
        -9358.2646484375
      ],
      "type": "VEC3"
    },
    {
      "bufferView": 2,
      "byteOffset": 2864424,
      "componentType": 5126,
      "count": 664,
      "max": [
        0.9999310970306396,
        1.0,
        0.9999743700027466
      ],
      "min": [
        -0.9999314546585083,
        -1.0,
        -0.9999762177467346
      ],
      "type": "VEC3"
    },
    {
      "bufferView": 1,
      "byteOffset": 952152,
      "componentType": 5126,
      "count": 664,
      "max": [
        1.0,
        1.0
      ],
      "min": [
        0.0,
        0.0
      ],
      "type": "VEC2"
    },
    {
      "bufferView": 0,
      "byteOffset": 1548144,
      "componentType": 5125,
      "count": 1968,
      "type": "SCALAR"
    }
  ],
  "asset": {
    "extras": {
      "author": "hillierforshaw (https://sketchfab.com/hillierforshaw)",
      "license": "CC-BY-4.0 (http://creativecommons.org/licenses/by/4.0/)",
      "source": "https://sketchfab.com/3d-models/stadium-a0924cca586a4c26ab007bdc080de1f7",
      "title": "Stadium"
    },
    "generator": "Sketchfab-12.68.0",
    "version": "2.0"
  },
  "bufferViews": [
    {
      "buffer": 0,
      "byteLength": 1556016,
      "name": "floatBufferViews",
      "target": 34963
    },
    {
      "buffer": 0,
      "byteLength": 957464,
      "byteOffset": 1556016,
      "byteStride": 8,
      "name": "floatBufferViews",
      "target": 34962
    },
    {
      "buffer": 0,
      "byteLength": 2872392,
      "byteOffset": 2513480,
      "byteStride": 12,
      "name": "floatBufferViews",
      "target": 34962
    }
  ],
  "buffers": [
    {
      "byteLength": 5385872,
      "uri": "scene.bin"
    }
  ],
  "materials": [
    {
      "doubleSided": true,
      "name": "Null_2__0",
      "pbrMetallicRoughness": {
        "metallicFactor": 0.0,
        "roughnessFactor": 0.6
      }
    },
    {
      "doubleSided": true,
      "name": "Mat.3",
      "pbrMetallicRoughness": {
        "metallicFactor": 0.0,
        "roughnessFactor": 0.9524317153998911
      }
    },
    {
      "doubleSided": true,
      "name": "Mat.4",
      "pbrMetallicRoughness": {
        "baseColorFactor": [
          0.32,
          0.308533,
          0.304,
          1.0
        ],
        "metallicFactor": 0.0,
        "roughnessFactor": 0.9524317153998911
      }
    },
    {
      "doubleSided": true,
      "name": "Mat.2",
      "pbrMetallicRoughness": {
        "baseColorFactor": [
          0.64,
          0.64,
          0.64,
          1.0
        ],
        "metallicFactor": 0.0,
        "roughnessFactor": 0.9524317153998911
      }
    },
    {
      "doubleSided": true,
      "name": "Mat.1",
      "pbrMetallicRoughness": {
        "baseColorFactor": [
          0.113,
          0.75,
          0.0675,
          1.0
        ],
        "metallicFactor": 0.0,
        "roughnessFactor": 0.9524317153998911
      }
    },
    {
      "doubleSided": true,
      "name": "material",
      "pbrMetallicRoughness": {
        "baseColorFactor": [
          0.556863,
          0.345098,
          0.32549,
          1.0
        ],
        "metallicFactor": 0.0,
        "roughnessFactor": 0.9524317153998911
      }
    }
  ],
  "meshes": [
    {
      "name": "Cylinder_5_Mat.3_0",
      "primitives": [
        {
          "attributes": {
            "NORMAL": 1,
            "POSITION": 0,
            "TEXCOORD_0": 2
          },
          "indices": 3,
          "material": 1,
          "mode": 4
        }
      ]
    },
    {
      "name": "Cylinder_4_Mat.3_0",
      "primitives": [
        {
          "attributes": {
            "NORMAL": 5,
            "POSITION": 4,
            "TEXCOORD_0": 6
          },
          "indices": 7,
          "material": 1,
          "mode": 4
        }
      ]
    },
    {
      "name": "Cylinder_3_Mat.3_0",
      "primitives": [
        {
          "attributes": {
            "NORMAL": 9,
            "POSITION": 8,
            "TEXCOORD_0": 10
          },
          "indices": 11,
          "material": 1,
          "mode": 4
        }
      ]
    },
    {
      "name": "Cylinder_2_Mat.3_0",
      "primitives": [
        {
          "attributes": {
            "NORMAL": 13,
            "POSITION": 12,
            "TEXCOORD_0": 14
          },
          "indices": 15,
          "material": 1,
          "mode": 4
        }
      ]
    },
    {
      "name": "Cylinder_1_Mat.3_0",
      "primitives": [
        {
          "attributes": {
            "NORMAL": 17,
            "POSITION": 16,
            "TEXCOORD_0": 18
          },
          "indices": 19,
          "material": 1,
          "mode": 4
        }
      ]
    },
    {
      "name": "Cylinder_Mat.3_0",
      "primitives": [
        {
          "attributes": {
            "NORMAL": 21,
            "POSITION": 20,
            "TEXCOORD_0": 22
          },
          "indices": 23,
          "material": 1,
          "mode": 4
        }
      ]
    },
    {
      "name": "Null_2__0",
      "primitives": [
        {
          "attributes": {
            "NORMAL": 25,
            "POSITION": 24,
            "TEXCOORD_0": 26
          },
          "indices": 27,
          "material": 0,
          "mode": 4
        }
      ]
    },
    {
      "name": "Null_2__0",
      "primitives": [
        {
          "attributes": {
            "NORMAL": 29,
            "POSITION": 28,
            "TEXCOORD_0": 30
          },
          "indices": 31,
          "material": 0,
          "mode": 4
        }
      ]
    },
    {
      "name": "Null_2_Mat.3_0",
      "primitives": [
        {
          "attributes": {
            "NORMAL": 33,
            "POSITION": 32,
            "TEXCOORD_0": 34
          },
          "indices": 35,
          "material": 1,
          "mode": 4
        }
      ]
    },
    {
      "name": "Null_2_Mat.4_0",
      "primitives": [
        {
          "attributes": {
            "NORMAL": 37,
            "POSITION": 36,
            "TEXCOORD_0": 38
          },
          "indices": 39,
          "material": 2,
          "mode": 4
        }
      ]
    },
    {
      "name": "Null_2_Mat.2_0",
      "primitives": [
        {
          "attributes": {
            "NORMAL": 41,
            "POSITION": 40,
            "TEXCOORD_0": 42
          },
          "indices": 43,
          "material": 3,
          "mode": 4
        }
      ]
    },
    {
      "name": "Null_2_Mat.1_0",
      "primitives": [
        {
          "attributes": {
            "NORMAL": 45,
            "POSITION": 44,
            "TEXCOORD_0": 46
          },
          "indices": 47,
          "material": 4,
          "mode": 4
        }
      ]
    },
    {
      "name": "Null_2_Mat_0",
      "primitives": [
        {
          "attributes": {
            "NORMAL": 49,
            "POSITION": 48,
            "TEXCOORD_0": 50
          },
          "indices": 51,
          "material": 5,
          "mode": 4
        }
      ]
    }
  ],
  "nodes": [
    {
      "children": [
        1
      ],
      "matrix": [
        1.0,
        0.0,
        0.0,
        0.0,
        0.0,
        2.220446049250313e-16,
        -1.0,
        0.0,
        0.0,
        1.0,
        2.220446049250313e-16,
        0.0,
        0.0,
        0.0,
        0.0,
        1.0
      ],
      "name": "Sketchfab_model"
    },
    {
      "children": [
        2
      ],
      "matrix": [
        1.0,
        0.0,
        0.0,
        0.0,
        0.0,
        0.0,
        1.0,
        0.0,
        0.0,
        -1.0,
        0.0,
        0.0,
        0.0,
        0.0,
        0.0,
        1.0
      ],
      "name": "7b60b37d42f3444b9772d57ef153a307.fbx"
    },
    {
      "children": [
        3,
        5
      ],
      "name": "RootNode"
    },
    {
      "children": [
        4
      ],
      "matrix": [
        0.5263900070157783,
        -0.6461404678005699,
        0.5526446022394407,
        0.0,
        0.4456415566160391,
        0.76321851122104,
        0.46786868579375224,
        0.0,
        -0.7240974820635426,
        -1.6653345369377348e-16,
        0.6896976413394768,
        0.0,
        -8141.38134765625,
        12364.44140625,
        -12646.2568359375,
        1.0
      ],
      "name": "CINEMA_4D_Editor"
    },
    {
      "name": "Object_4"
    },
    {
      "children": [
        6,
        8,
        10,
        12,
        14,
        16,
        18
      ],
      "matrix": [
        1.0,
        0.0,
        0.0,
        0.0,
        0.0,
        1.0,
        0.0,
        0.0,
        0.0,
        0.0,
        1.0,
        0.0,
        -17.76959991455078,
        920.9730224609375,
        555.5318603515625,
        1.0
      ],
      "name": "Null"
    },
    {
      "children": [
        7
      ],
      "matrix": [
        1.0,
        0.0,
        0.0,
        0.0,
        0.0,
        1.0,
        0.0,
        0.0,
        0.0,
        0.0,
        1.0,
        0.0,
        -534.1430053710938,
        10.002063751220703,
        -5733.46630859375,
        1.0
      ],
      "name": "Cylinder_5"
    },
    {
      "mesh": 0,
      "name": "Cylinder_5_Mat.3_0"
    },
    {
      "children": [
        9
      ],
      "matrix": [
        1.0,
        0.0,
        0.0,
        0.0,
        0.0,
        1.0,
        0.0,
        0.0,
        0.0,
        0.0,
        1.0,
        0.0,
        536.4754638671875,
        10.002063751220703,
        -5733.46630859375,
        1.0
      ],
      "name": "Cylinder_4"
    },
    {
      "mesh": 1,
      "name": "Cylinder_4_Mat.3_0"
    },
    {
      "children": [
        11
      ],
      "matrix": [
        4.440892098500626e-16,
        -1.0,
        0.0,
        0.0,
        1.0,
        4.440892098500626e-16,
        0.0,
        0.0,
        0.0,
        0.0,
        1.0,
        0.0,
        1.2816944122314453,
        10.002063751220703,
        -5733.46630859375,
        1.0
      ],
      "name": "Cylinder_3"
    },
    {
      "mesh": 2,
      "name": "Cylinder_3_Mat.3_0"
    },
    {
      "children": [
        13
      ],
      "matrix": [
        4.440892098500626e-16,
        -1.0,
        0.0,
        0.0,
        1.0,
        4.440892098500626e-16,
        0.0,
        0.0,
        0.0,
        0.0,
        1.0,
        0.0,
        1.2816944122314453,
        10.002063751220703,
        5871.08837890625,
        1.0
      ],
      "name": "Cylinder_2"
    },
    {
      "mesh": 3,
      "name": "Cylinder_2_Mat.3_0"
    },
    {
      "children": [
        15
      ],
      "matrix": [
        1.0,
        0.0,
        0.0,
        0.0,
        0.0,
        1.0,
        0.0,
        0.0,
        0.0,
        0.0,
        1.0,
        0.0,
        536.4754638671875,
        10.002063751220703,
        5871.08837890625,
        1.0
      ],
      "name": "Cylinder_1"
    },
    {
      "mesh": 4,
      "name": "Cylinder_1_Mat.3_0"
    },
    {
      "children": [
        17
      ],
      "matrix": [
        1.0,
        0.0,
        0.0,
        0.0,
        0.0,
        1.0,
        0.0,
        0.0,
        0.0,
        0.0,
        1.0,
        0.0,
        -534.1430053710938,
        10.002063751220703,
        5871.08837890625,
        1.0
      ],
      "name": "Cylinder"
    },
    {
      "mesh": 5,
      "name": "Cylinder_Mat.3_0"
    },
    {
      "children": [
        19,
        20,
        21,
        22,
        23,
        24,
        25
      ],
      "matrix": [
        1.0,
        0.0,
        0.0,
        0.0,
        0.0,
        1.0,
        0.0,
        0.0,
        0.0,
        0.0,
        1.0,
        0.0,
        -7.228269577026367,
        -60.01238250732422,
        -412.8667907714844,
        1.0
      ],
      "name": "Null_2"
    },
    {
      "mesh": 6,
      "name": "Null_2__0"
    },
    {
      "mesh": 7,
      "name": "Null_2__0"
    },
    {
      "mesh": 8,
      "name": "Null_2_Mat.3_0"
    },
    {
      "mesh": 9,
      "name": "Null_2_Mat.4_0"
    },
    {
      "mesh": 10,
      "name": "Null_2_Mat.2_0"
    },
    {
      "mesh": 11,
      "name": "Null_2_Mat.1_0"
    },
    {
      "mesh": 12,
      "name": "Null_2_Mat_0"
    }
  ],
  "scene": 0,
  "scenes": [
    {
      "name": "Sketchfab_Scene",
      "nodes": [
        0
      ]
    }
  ]
}
