{
  "accessors": [
    {
      "bufferView": 2,
      "componentType": 5126,
      "count": 14097,
      "max": [
        3332.951171875,
        2430.0,
        16248.599609375
      ],
      "min": [
        -3332.951171875,
        -2700.0,
        0.0
      ],
      "type": "VEC3"
    },
    {
      "bufferView": 2,
      "byteOffset": 169164,
      "componentType": 5126,
      "count": 14097,
      "max": [
        1.0,
        1.0,
        1.0
      ],
      "min": [
        -1.0,
        -1.0,
        -1.0
      ],
      "type": "VEC3"
    },
    {
      "bufferView": 1,
      "componentType": 5126,
      "count": 14097,
      "max": [
        0.9997329115867615,
        0.9994094371795654
      ],
      "min": [
        0.0019427412189543247,
        0.0004917359910905361
      ],
      "type": "VEC2"
    },
    {
      "bufferView": 1,
      "byteOffset": 112776,
      "componentType": 5126,
      "count": 14097,
      "max": [
        0.9990000128746033,
        0.9988346695899963
      ],
      "min": [
        0.0010000000474974513,
        0.0010000000474974513
      ],
      "type": "VEC2"
    },
    {
      "bufferView": 1,
      "byteOffset": 225552,
      "componentType": 5126,
      "count": 14097,
      "max": [
        0.9997329115867615,
        0.9994094371795654
      ],
      "min": [
        0.0019427412189543247,
        0.0004917359910905361
      ],
      "type": "VEC2"
    },
    {
      "bufferView": 1,
      "byteOffset": 338328,
      "componentType": 5126,
      "count": 14097,
      "max": [
        0.9997329115867615,
        0.9994094371795654
      ],
      "min": [
        0.0019427412189543247,
        0.0004917359910905361
      ],
      "type": "VEC2"
    },
    {
      "bufferView": 0,
      "componentType": 5125,
      "count": 22821,
      "type": "SCALAR"
    }
  ],
  "asset": {
    "extras": {
      "author": "aitortilla01 (https://sketchfab.com/aitortilla01)",
      "license": "CC-BY-4.0 (http://creativecommons.org/licenses/by/4.0/)",
      "source": "https://sketchfab.com/3d-models/miami-style-condominium-b3e16399830045a7b67ec8e02447fd27",
      "title": "Miami style condominium"
    },
    "generator": "Sketchfab-12.65.0",
    "version": "2.0"
  },
  "bufferViews": [
    {
      "buffer": 0,
      "byteLength": 91284,
      "name": "floatBufferViews",
      "target": 34963
    },
    {
      "buffer": 0,
      "byteLength": 451104,
      "byteOffset": 91284,
      "byteStride": 8,
      "name": "floatBufferViews",
      "target": 34962
    },
    {
      "buffer": 0,
      "byteLength": 338328,
      "byteOffset": 542388,
      "byteStride": 12,
      "name": "floatBufferViews",
      "target": 34962
    }
  ],
  "buffers": [
    {
      "byteLength": 880716,
      "uri": "scene.bin"
    }
  ],
  "images": [
    {
      "uri": "textures/hirise8_baseColor.png"
    }
  ],
  "materials": [
    {
      "doubleSided": true,
      "name": "hirise8",
      "pbrMetallicRoughness": {
        "baseColorTexture": {
          "index": 0
        },
        "metallicFactor": 0.0,
        "roughnessFactor": 0.6
      }
    }
  ],
  "meshes": [
    {
      "name": "hirise8_hirise8_0",
      "primitives": [
        {
          "attributes": {
            "NORMAL": 1,
            "POSITION": 0,
            "TEXCOORD_0": 2,
            "TEXCOORD_1": 3,
            "TEXCOORD_2": 4,
            "TEXCOORD_3": 5
          },
          "indices": 6,
          "material": 0,
          "mode": 4
        }
      ]
    }
  ],
  "nodes": [
    {
      "children": [
        1
      ],
      "matrix": [
        1.0,
        0.0,
        0.0,
        0.0,
        0.0,
        2.220446049250313e-16,
        -1.0,
        0.0,
        0.0,
        1.0,
        2.220446049250313e-16,
        0.0,
        0.0,
        0.0,
        0.0,
        1.0
      ],
      "name": "Sketchfab_model"
    },
    {
      "children": [
        2
      ],
      "matrix": [
        1.0,
        0.0,
        0.0,
        0.0,
        0.0,
        0.0,
        1.0,
        0.0,
        0.0,
        -1.0,
        0.0,
        0.0,
        0.0,
        0.0,
        0.0,
        1.0
      ],
      "name": "hirise8.FBX"
    },
    {
      "children": [
        3
      ],
      "name": "RootNode"
    },
    {
      "children": [
        4
      ],
      "matrix": [
        1.0,
        0.0,
        0.0,
        0.0,
        0.0,
        2.220446049250313e-16,
        -1.0,
        0.0,
        0.0,
        1.0,
        2.220446049250313e-16,
        0.0,
        0.0,
        0.0,
        0.0,
        1.0
      ],
      "name": "hirise8"
    },
    {
      "mesh": 0,
      "name": "hirise8_hirise8_0"
    }
  ],
  "samplers": [
    {
      "magFilter": 9729,
      "minFilter": 9987,
      "wrapS": 10497,
      "wrapT": 10497
    }
  ],
  "scene": 0,
  "scenes": [
    {
      "name": "Sketchfab_Scene",
      "nodes": [
        0
      ]
    }
  ],
  "textures": [
    {
      "sampler": 0,
      "source": 0
    }
  ]
}
