{
  "accessors": [
    {
      "bufferView": 2,
      "componentType": 5126,
      "count": 12810,
      "max": [
        379.4009094238281,
        933.6635131835938,
        387.3594665527344
      ],
      "min": [
        -318.6331481933594,
        -4.713177680969238,
        -378.36114501953125
      ],
      "type": "VEC3"
    },
    {
      "bufferView": 2,
      "byteOffset": 153720,
      "componentType": 5126,
      "count": 12810,
      "max": [
        1.0,
        1.0,
        1.0
      ],
      "min": [
        -1.0,
        -1.0,
        -1.0
      ],
      "type": "VEC3"
    },
    {
      "bufferView": 1,
      "componentType": 5126,
      "count": 12810,
      "max": [
        0.9985172748565674,
        0.9870849251747131
      ],
      "min": [
        0.0,
        0.0
      ],
      "type": "VEC2"
    },
    {
      "bufferView": 1,
      "byteOffset": 102480,
      "componentType": 5126,
      "count": 12810,
      "max": [
        1.0,
        1.0
      ],
      "min": [
        0.0,
        0.0
      ],
      "type": "VEC2"
    },
    {
      "bufferView": 0,
      "componentType": 5125,
      "count": 24894,
      "type": "SCALAR"
    },
    {
      "bufferView": 2,
      "byteOffset": 307440,
      "componentType": 5126,
      "count": 553,
      "max": [
        10.147987365722656,
        149.02639770507813,
        15.618022918701172
      ],
      "min": [
        -103.994384765625,
        -102.4018325805664,
        -20.935779571533203
      ],
      "type": "VEC3"
    },
    {
      "bufferView": 2,
      "byteOffset": 314076,
      "componentType": 5126,
      "count": 553,
      "max": [
        0.9999953508377075,
        1.0,
        0.9999952912330627
      ],
      "min": [
        -0.9999953508377075,
        -1.0,
        -0.9999953508377075
      ],
      "type": "VEC3"
    },
    {
      "bufferView": 1,
      "byteOffset": 204960,
      "componentType": 5126,
      "count": 553,
      "max": [
        0.5545774102210999,
        0.9530316591262817
      ],
      "min": [
        0.004938066937029362,
        0.16406218707561493
      ],
      "type": "VEC2"
    },
    {
      "bufferView": 1,
      "byteOffset": 209384,
      "componentType": 5126,
      "count": 553,
      "max": [
        0.9953216314315796,
        1.0
      ],
      "min": [
        0.0,
        -2.3672114934925048e-08
      ],
      "type": "VEC2"
    },
    {
      "bufferView": 0,
      "byteOffset": 99576,
      "componentType": 5125,
      "count": 984,
      "type": "SCALAR"
    },
    {
      "bufferView": 2,
      "byteOffset": 320712,
      "componentType": 5126,
      "count": 86,
      "max": [
        20.608715057373047,
        8.807011604309082,
        6.964301586151123
      ],
      "min": [
        -21.759721755981445,
        -9.559168815612793,
        -35.598609924316406
      ],
      "type": "VEC3"
    },
    {
      "bufferView": 2,
      "byteOffset": 321744,
      "componentType": 5126,
      "count": 86,
      "max": [
        0.8493449687957764,
        0.9763325452804565,
        0.8719760775566101
      ],
      "min": [
        -0.8543714880943298,
        -0.6491739749908447,
        -0.8541545271873474
      ],
      "type": "VEC3"
    },
    {
      "bufferView": 1,
      "byteOffset": 213808,
      "componentType": 5126,
      "count": 86,
      "max": [
        0.05554039776325226,
        0.36096739768981934
      ],
      "min": [
        0.00899158138781786,
        0.2071998119354248
      ],
      "type": "VEC2"
    },
    {
      "bufferView": 1,
      "byteOffset": 214496,
      "componentType": 5126,
      "count": 86,
      "max": [
        1.0,
        0.9968042373657227
      ],
      "min": [
        0.08882825821638107,
        0.30299028754234314
      ],
      "type": "VEC2"
    },
    {
      "bufferView": 0,
      "byteOffset": 103512,
      "componentType": 5125,
      "count": 168,
      "type": "SCALAR"
    },
    {
      "bufferView": 3,
      "componentType": 5126,
      "count": 64,
      "max": [
        1.6666666269302368
      ],
      "min": [
        0.0416666679084301
      ],
      "type": "SCALAR"
    },
    {
      "bufferView": 4,
      "componentType": 5126,
      "count": 64,
      "max": [
        0.9048786163330078,
        1.9644249146378825e-17,
        2.424893035152879e-17,
        0.7300275564193726
      ],
      "min": [
        -0.8631832003593445,
        -9.810379435671772e-18,
        -1.1708749842494232e-17,
        -0.48935043811798096
      ],
      "type": "VEC4"
    },
    {
      "bufferView": 3,
      "byteOffset": 256,
      "componentType": 5126,
      "count": 73,
      "max": [
        1.6666666269302368
      ],
      "min": [
        0.0416666679084301
      ],
      "type": "SCALAR"
    },
    {
      "bufferView": 4,
      "byteOffset": 1024,
      "componentType": 5126,
      "count": 73,
      "max": [
        -2.5141480008983308e-08,
        0.7459356784820557,
        2.8158288145618826e-08,
        1.0
      ],
      "min": [
        -3.774895063202166e-08,
        4.19097541471088e-24,
        -1.1102230246251565e-16,
        0.666018009185791
      ],
      "type": "VEC4"
    }
  ],
  "animations": [
    {
      "channels": [
        {
          "sampler": 0,
          "target": {
            "node": 8,
            "path": "rotation"
          }
        },
        {
          "sampler": 1,
          "target": {
            "node": 6,
            "path": "rotation"
          }
        }
      ],
      "name": "Take 001",
      "samplers": [
        {
          "input": 15,
          "interpolation": "LINEAR",
          "output": 16
        },
        {
          "input": 17,
          "interpolation": "LINEAR",
          "output": 18
        }
      ]
    }
  ],
  "asset": {
    "extras": {
      "author": "BitGem (https://sketchfab.com/bitgem)",
      "license": "CC-BY-4.0 (http://creativecommons.org/licenses/by/4.0/)",
      "source": "https://sketchfab.com/3d-models/rts-human-house-lv2-proto-series-d186eaa8f042412db5964fe4a3e91a96",
      "title": "RTS Human House Lv2 - Proto Series"
    },
    "generator": "Sketchfab-14.42.0",
    "version": "2.0"
  },
  "bufferViews": [
    {
      "buffer": 0,
      "byteLength": 104184,
      "name": "floatBufferViews",
      "target": 34963
    },
    {
      "buffer": 0,
      "byteLength": 215184,
      "byteOffset": 104184,
      "byteStride": 8,
      "name": "floatBufferViews",
      "target": 34962
    },
    {
      "buffer": 0,
      "byteLength": 322776,
      "byteOffset": 319368,
      "byteStride": 12,
      "name": "floatBufferViews",
      "target": 34962
    },
    {
      "buffer": 0,
      "byteLength": 548,
      "byteOffset": 642144,
      "name": "floatBufferViews"
    },
    {
      "buffer": 0,
      "byteLength": 2192,
      "byteOffset": 642692,
      "byteStride": 16,
      "name": "floatBufferViews"
    }
  ],
  "buffers": [
    {
      "byteLength": 644884,
      "uri": "scene.bin"
    }
  ],
  "images": [
    {
      "uri": "textures/proto_human_rts_baseColor.png"
    },
    {
      "uri": "textures/proto_human_rts_metallicRoughness.png"
    },
    {
      "uri": "textures/proto_human_rts_emissive.png"
    }
  ],
  "materials": [
    {
      "doubleSided": true,
      "emissiveFactor": [
        0.5333349587351123,
        0.5333349587351123,
        0.5333349587351123
      ],
      "emissiveTexture": {
        "index": 2
      },
      "name": "proto_human_rts",
      "pbrMetallicRoughness": {
        "baseColorTexture": {
          "index": 0
        },
        "metallicRoughnessTexture": {
          "index": 1
        }
      }
    }
  ],
  "meshes": [
    {
      "name": "house_Lv2_proto_human_rts_0",
      "primitives": [
        {
          "attributes": {
            "NORMAL": 1,
            "POSITION": 0,
            "TEXCOORD_0": 2,
            "TEXCOORD_1": 3
          },
          "indices": 4,
          "material": 0,
          "mode": 4
        }
      ]
    },
    {
      "name": "house_Lv2_door_proto_human_rts_0",
      "primitives": [
        {
          "attributes": {
            "NORMAL": 6,
            "POSITION": 5,
            "TEXCOORD_0": 7,
            "TEXCOORD_1": 8
          },
          "indices": 9,
          "material": 0,
          "mode": 4
        }
      ]
    },
    {
      "name": "house_Lv2_door_handler_proto_human_rts_0",
      "primitives": [
        {
          "attributes": {
            "NORMAL": 11,
            "POSITION": 10,
            "TEXCOORD_0": 12,
            "TEXCOORD_1": 13
          },
          "indices": 14,
          "material": 0,
          "mode": 4
        }
      ]
    }
  ],
  "nodes": [
    {
      "children": [
        1
      ],
      "matrix": [
        1.0,
        0.0,
        0.0,
        0.0,
        0.0,
        2.220446049250313e-16,
        -1.0,
        0.0,
        0.0,
        1.0,
        2.220446049250313e-16,
        0.0,
        0.0,
        0.0,
        0.0,
        1.0
      ],
      "name": "Sketchfab_model"
    },
    {
      "children": [
        2
      ],
      "matrix": [
        0.009999999776482582,
        0.0,
        0.0,
        0.0,
        0.0,
        0.0,
        0.009999999776482582,
        0.0,
        0.0,
        -0.009999999776482582,
        0.0,
        0.0,
        0.0,
        0.0,
        0.0,
        1.0
      ],
      "name": "185df7126e434f4e9ef14882c71fa3a7.fbx"
    },
    {
      "children": [
        3
      ],
      "name": "Object_2"
    },
    {
      "children": [
        4,
        6
      ],
      "name": "RootNode"
    },
    {
      "children": [
        5
      ],
      "name": "house_Lv2"
    },
    {
      "mesh": 0,
      "name": "house_Lv2_proto_human_rts_0"
    },
    {
      "children": [
        7,
        8
      ],
      "name": "house_Lv2_door",
      "rotation": [
        -3.774895063202166e-08,
        4.19097541471088e-24,
        -1.1102230246251565e-16,
        1.0
      ],
      "translation": [
        43.23911666870117,
        249.9745330810547,
        257.2445068359375
      ]
    },
    {
      "mesh": 1,
      "name": "house_Lv2_door_proto_human_rts_0"
    },
    {
      "children": [
        9
      ],
      "name": "house_Lv2_door_handler",
      "rotation": [
        -0.7078723311424255,
        0.0,
        0.0,
        0.7063403725624084
      ],
      "translation": [
        -76.28150939941406,
        -4.415674686431885,
        5.377936363220215
      ]
    },
    {
      "mesh": 2,
      "name": "house_Lv2_door_handler_proto_human_rts_0"
    }
  ],
  "samplers": [
    {
      "magFilter": 9729,
      "minFilter": 9987,
      "wrapS": 10497,
      "wrapT": 10497
    }
  ],
  "scene": 0,
  "scenes": [
    {
      "name": "Sketchfab_Scene",
      "nodes": [
        0
      ]
    }
  ],
  "textures": [
    {
      "sampler": 0,
      "source": 0
    },
    {
      "sampler": 0,
      "source": 1
    },
    {
      "sampler": 0,
      "source": 2
    }
  ]
}
